<svg width="16" height="16" viewBox="0 0 16 16" fill="none" xmlns="http://www.w3.org/2000/svg">
    <g clip-path="url(#clip0_8_13)">
        <path
            d="M14.5274 0H1.47265C0.659326 0 0 0.659326 0 1.47265V14.5274C0 15.3407 0.659326 16 1.47265 16H14.5274C15.3407 16 16 15.3407 16 14.5274V1.47265C16 0.659326 15.3407 0 14.5274 0Z"
            fill="#0F0F0F" />
        <path
            d="M6.89242 8.55935L8.64978 9.74548C8.71896 9.79222 8.81179 9.74253 8.81179 9.65911V7.67138C8.81179 7.58797 8.90463 7.53886 8.97381 7.58501L10.7371 8.77469C10.7655 8.79421 10.7826 8.82616 10.7826 8.86106V11.1842L8.86679 12.2035C8.83308 12.2213 8.79169 12.2195 8.75976 12.1982L7.0024 11.0121C6.93322 10.9653 6.84039 11.015 6.84039 11.0984V13.2814L5.02212 14.2486C4.95294 14.2853 4.86957 14.235 4.86957 14.157V9.63486C4.86957 9.5964 4.89085 9.56091 4.92456 9.54316L6.78539 8.55344C6.8191 8.53569 6.86049 8.53746 6.89242 8.55876V8.55935ZM8.81179 2.78132V4.90216C8.81179 4.98557 8.71896 5.03467 8.64978 4.98853L6.89242 3.8024C6.86049 3.7811 6.81969 3.77873 6.78539 3.79707L4.92456 4.7868C4.89085 4.80455 4.86957 4.84004 4.86957 4.87849V7.13954C4.86957 7.17385 4.88672 7.20639 4.9151 7.22591L6.67837 8.4156C6.74755 8.46233 6.84039 8.41264 6.84039 8.32922V6.34149C6.84039 6.25808 6.93322 6.20897 7.0024 6.25512L8.75976 7.44125C8.79169 7.46255 8.83249 7.46491 8.86679 7.44658L10.7276 6.45685C10.7613 6.4391 10.7826 6.40361 10.7826 6.36515V1.84306C10.7826 1.76497 10.6992 1.71468 10.6301 1.75136L8.86679 2.68962C8.83308 2.70737 8.81179 2.74286 8.81179 2.78132Z"
            fill="white" />
    </g>
    <defs>
        <clipPath id="clip0_8_13">
            <rect width="16" height="16" fill="white" />
        </clipPath>
    </defs>
</svg>