<svg width="161" height="162" viewBox="0 0 161 162" fill="none" xmlns="http://www.w3.org/2000/svg">
    <path
        d="M7.99 93.67C6.99 93.82 6.1 93.15 5.95 92.17C5.8 91.19 6.47 90.28 7.45 90.13C8.43 89.98 9.34 90.65 9.49 91.63C9.64 92.64 8.95 93.53 7.99 93.67ZM11.94 72.81C11.85 73.63 11.61 74.37 11.23 75.03C10.85 75.69 10.37 76.26 9.78 76.72C9.19 77.18 8.51 77.52 7.76 77.72C7 77.93 6.19 77.98 5.33 77.88C4.48 77.78 3.72 77.55 3.03 77.19C2.34 76.83 1.76 76.36 1.28 75.79C0.79 75.22 0.44 74.57 0.23 73.84C0.0200001 73.11 -0.0499999 72.33 0.0500001 71.51C0.17 70.51 0.45 69.66 0.91 68.95C1.37 68.24 1.94 67.67 2.62 67.25C3.3 66.82 4.04 66.55 4.84 66.43L4.68 67.78C4.09 67.87 3.54 68.08 3.03 68.39C2.52 68.7 2.09 69.14 1.75 69.68C1.41 70.23 1.19 70.89 1.1 71.66C1 72.53 1.12 73.32 1.46 74.04C1.8 74.76 2.32 75.34 3 75.81C3.68 76.28 4.51 76.56 5.48 76.67C6.41 76.78 7.27 76.68 8.06 76.39C8.85 76.09 9.49 75.63 9.99 74.99C10.49 74.35 10.8 73.58 10.9 72.66C11 71.83 10.92 71.09 10.67 70.44C10.42 69.79 10.02 69.24 9.47 68.79C8.92 68.35 8.25 68.03 7.47 67.84L6.95 72.32L5.98 72.21L6.64 66.49C7.54 66.59 8.34 66.82 9.04 67.18C9.74 67.54 10.32 67.99 10.79 68.55C11.26 69.11 11.59 69.75 11.78 70.46C11.98 71.17 12.03 71.96 11.93 72.8L11.94 72.81ZM14.7 58.92L14.28 60.04L3.52 56.02L4.96 52.18C5.39 51.03 6.01 50.23 6.82 49.78C7.63 49.33 8.56 49.3 9.6 49.69C10.41 49.99 11 50.5 11.38 51.2C11.76 51.91 11.86 52.71 11.68 53.61L17.21 52.21L16.71 53.56L11.37 54.86L10.45 57.32L14.71 58.91L14.7 58.92ZM4.88 55.25L9.5 56.98L10.48 54.36C10.79 53.54 10.83 52.82 10.62 52.19C10.41 51.56 9.92 51.11 9.17 50.83C8.42 50.55 7.76 50.58 7.18 50.91C6.61 51.24 6.17 51.82 5.86 52.64L4.88 55.26V55.25ZM24.63 39.63L13.97 37.28L20.37 46.14L19.72 47.13L12.56 37.1L13.28 36L25.33 38.57L24.64 39.63H24.63ZM17.54 42.86L20.58 38.22L21.58 38.47L18.09 43.8L17.54 42.86ZM29.42 27.92L27.57 29.72L30.52 32.75L29.66 33.59L21.64 25.36L24.34 22.72C24.91 22.17 25.5 21.79 26.13 21.57C26.75 21.36 27.37 21.32 27.99 21.47C28.61 21.62 29.18 21.97 29.72 22.53C30.26 23.09 30.6 23.68 30.74 24.3C30.88 24.92 30.83 25.55 30.6 26.16C30.37 26.78 29.97 27.36 29.41 27.92H29.42ZM25.05 23.46L23.22 25.25L26.86 28.99L28.69 27.2C29.3 26.6 29.63 25.97 29.67 25.28C29.71 24.6 29.44 23.96 28.86 23.36C28.28 22.76 27.65 22.48 26.98 22.52C26.3 22.55 25.66 22.87 25.05 23.46ZM41.63 23.32L40.61 23.95L34.61 14.15L35.63 13.52L38.26 17.82L43.83 14.41L41.2 10.11L42.22 9.47999L48.22 19.28L47.2 19.91L44.38 15.3L38.81 18.71L41.63 23.32ZM55.05 16.31L53.94 16.76L49.62 6.10999L50.73 5.65999L55.05 16.31ZM65.99 13.26C65.21 13.43 64.45 13.44 63.72 13.28C62.99 13.13 62.32 12.84 61.71 12.41C61.1 11.98 60.58 11.44 60.15 10.79C59.72 10.14 59.42 9.39999 59.24 8.56999C59.06 7.73999 59.04 6.94999 59.16 6.17999C59.28 5.40999 59.54 4.70999 59.92 4.07999C60.3 3.44999 60.79 2.90999 61.4 2.46999C62 2.02999 62.7 1.71999 63.48 1.55999C64.37 1.36999 65.22 1.37999 66.06 1.58999C66.89 1.79999 67.63 2.18999 68.28 2.74999C68.93 3.30999 69.43 4.02999 69.76 4.88999L68.52 5.15999C68.26 4.51999 67.88 3.97999 67.39 3.54999C66.89 3.11999 66.33 2.81999 65.7 2.64999C65.07 2.47999 64.4 2.46999 63.71 2.61999C63.08 2.74999 62.54 2.99999 62.07 3.34999C61.6 3.69999 61.22 4.12999 60.92 4.63999C60.63 5.14999 60.44 5.71999 60.35 6.34999C60.26 6.97999 60.3 7.63999 60.45 8.32999C60.6 9.02999 60.84 9.64999 61.18 10.19C61.51 10.73 61.92 11.17 62.4 11.52C62.88 11.87 63.4 12.11 63.98 12.24C64.55 12.37 65.15 12.36 65.78 12.23C66.48 12.08 67.08 11.79 67.59 11.37C68.1 10.95 68.49 10.44 68.76 9.82999C69.03 9.22999 69.15 8.57999 69.12 7.89999L70.36 7.62999C70.4 8.54999 70.25 9.39999 69.9 10.19C69.55 10.98 69.03 11.64 68.36 12.17C67.68 12.71 66.9 13.07 66.02 13.26H65.99ZM86.93 11.78L83.68 11.43L84.92 0.00999451L88.16 0.359995C89.38 0.489995 90.39 0.839994 91.18 1.41999C91.98 1.98999 92.55 2.72999 92.89 3.61999C93.23 4.51999 93.34 5.51999 93.22 6.62999C93.1 7.72999 92.77 8.68999 92.23 9.50999C91.69 10.33 90.97 10.94 90.06 11.35C89.15 11.76 88.1 11.9 86.92 11.77L86.93 11.78ZM86 1.16999L84.99 10.52L87.01 10.74C87.99 10.85 88.83 10.74 89.54 10.42C90.25 10.1 90.82 9.59999 91.24 8.92999C91.66 8.25999 91.92 7.44999 92.03 6.49999C92.13 5.55999 92.05 4.71999 91.78 3.98999C91.51 3.25999 91.06 2.66999 90.44 2.21999C89.81 1.76999 89.01 1.48999 88.03 1.38999L86.01 1.16999H86ZM105.94 15.09L105.61 16.08L99.06 13.93L102.65 3.01999L109.09 5.13999L108.76 6.12999L103.46 4.37999L102.21 8.17999L107.06 9.76999L106.73 10.76L101.88 9.15999L100.51 13.31L105.92 15.09H105.94ZM120.43 20.15C120.12 20.68 119.71 21.08 119.18 21.36C118.65 21.64 118.04 21.75 117.35 21.71C116.66 21.66 115.93 21.41 115.16 20.96C114.38 20.51 113.8 19.99 113.41 19.41C113.02 18.82 112.81 18.21 112.78 17.56C112.76 16.91 112.91 16.26 113.24 15.61L114.29 16.22C113.94 16.95 113.86 17.66 114.06 18.34C114.26 19.02 114.78 19.61 115.64 20.11C116.11 20.38 116.58 20.55 117.05 20.62C117.52 20.69 117.95 20.64 118.34 20.48C118.73 20.32 119.04 20.04 119.26 19.66C119.56 19.14 119.63 18.66 119.47 18.22C119.31 17.77 118.92 17.28 118.3 16.72L117.18 15.74C116.89 15.48 116.61 15.2 116.36 14.9C116.11 14.6 115.92 14.27 115.77 13.92C115.62 13.57 115.56 13.2 115.58 12.81C115.6 12.42 115.73 12.01 115.98 11.57C116.29 11.03 116.71 10.64 117.24 10.38C117.77 10.12 118.36 10.01 119.02 10.06C119.68 10.11 120.33 10.32 120.99 10.71C121.65 11.09 122.16 11.56 122.52 12.12C122.89 12.68 123.1 13.28 123.15 13.93C123.21 14.58 123.06 15.23 122.72 15.88L121.65 15.26C121.89 14.81 122 14.35 121.98 13.88C121.96 13.41 121.83 12.98 121.59 12.58C121.35 12.18 120.99 11.84 120.51 11.56C120 11.27 119.52 11.11 119.07 11.09C118.62 11.07 118.22 11.16 117.87 11.34C117.52 11.52 117.25 11.78 117.05 12.12C116.83 12.51 116.74 12.87 116.81 13.22C116.87 13.57 117.03 13.89 117.28 14.2C117.53 14.51 117.81 14.81 118.14 15.1L119.25 16.09C119.99 16.75 120.47 17.41 120.71 18.06C120.95 18.71 120.85 19.41 120.41 20.15H120.43ZM124.22 27.03L123.28 26.28L130.46 17.31L131.4 18.06L124.22 27.03ZM132.38 35.23C131.84 34.61 131.45 33.94 131.21 33.22C130.97 32.49 130.87 31.76 130.93 31.01C130.98 30.26 131.18 29.54 131.54 28.83C131.89 28.13 132.4 27.49 133.05 26.92C133.69 26.36 134.37 25.94 135.1 25.68C135.83 25.42 136.57 25.3 137.32 25.32C138.07 25.34 138.79 25.52 139.47 25.84C140.15 26.16 140.77 26.64 141.32 27.27C141.98 28.02 142.42 28.81 142.64 29.62C142.86 30.43 142.9 31.24 142.76 32.03C142.62 32.82 142.33 33.56 141.88 34.23L140.98 33.21C141.31 32.71 141.52 32.16 141.63 31.57C141.74 30.98 141.7 30.37 141.52 29.76C141.34 29.15 141 28.54 140.48 27.95C139.9 27.29 139.23 26.85 138.47 26.63C137.71 26.4 136.93 26.39 136.13 26.59C135.33 26.79 134.56 27.21 133.83 27.85C133.12 28.47 132.62 29.17 132.31 29.95C132 30.73 131.92 31.52 132.06 32.33C132.2 33.13 132.57 33.88 133.18 34.57C133.73 35.19 134.33 35.63 134.98 35.88C135.63 36.13 136.31 36.2 137.01 36.09C137.71 35.98 138.39 35.7 139.05 35.24L136.07 31.85L136.8 31.21L140.6 35.53C139.92 36.13 139.21 36.57 138.48 36.85C137.75 37.13 137.02 37.26 136.29 37.23C135.56 37.2 134.87 37.02 134.2 36.69C133.54 36.36 132.92 35.87 132.36 35.23H132.38ZM143.99 52.83L149.77 42.46L141.01 46.83L140.51 45.83L150.79 40.71L151.38 41.9L145.69 52.15L154.34 47.84L154.85 48.86L144.57 53.98L144 52.83H143.99ZM153.53 64.86L152.49 60.8L148.73 61.77L149.89 66.29L148.76 66.58L147.25 60.71L157.69 58.03L159.14 63.67L158.01 63.96L156.91 59.67L153.61 60.52L154.65 64.58L153.53 64.87V64.86ZM160.32 71.71C160.51 72.4 160.66 73.4 160.73 74.36C160.83 75.84 160.63 76.82 160.07 77.53C159.63 78.11 158.92 78.46 158.09 78.52C156.67 78.62 155.67 77.79 155.21 76.68H155.16C154.93 77.53 154.2 78.08 153.1 78.41C151.62 78.86 150.6 79.19 150.2 79.44L150.1 78C150.39 77.8 151.3 77.5 152.62 77.11C154.08 76.69 154.6 76.07 154.56 74.81L154.47 73.5L149.81 73.82L149.72 72.43L160.33 71.7L160.32 71.71ZM155.52 73.44L155.62 74.86C155.72 76.34 156.6 77.23 157.83 77.15C159.22 77.05 159.76 76.01 159.67 74.54C159.62 73.87 159.53 73.4 159.45 73.18L155.52 73.45V73.44ZM153.86 88.91C154.8 89.02 155.43 89.88 155.3 90.8C155.17 91.72 154.35 92.37 153.43 92.24C152.49 92.12 151.86 91.29 151.99 90.35C152.11 89.43 152.93 88.78 153.86 88.91ZM154.04 114.4L147.02 111.62C146.23 111.31 145.6 110.87 145.14 110.32C144.68 109.77 144.41 109.13 144.33 108.43C144.25 107.73 144.37 106.97 144.68 106.19C145 105.4 145.42 104.77 145.97 104.31C146.51 103.85 147.14 103.57 147.86 103.48C148.57 103.39 149.33 103.5 150.12 103.82L157.14 106.61L156.7 107.73L149.62 104.92C149.04 104.69 148.5 104.61 147.98 104.68C147.46 104.75 147 104.95 146.61 105.27C146.22 105.59 145.91 106.04 145.69 106.59C145.47 107.14 145.39 107.68 145.45 108.18C145.51 108.69 145.71 109.14 146.04 109.54C146.37 109.94 146.83 110.26 147.4 110.49L154.48 113.3L154.04 114.42V114.4ZM139.82 116.52L140.43 115.49L150.31 121.35L149.7 122.38L139.82 116.52ZM134.76 118.75L135.42 117.89L142.63 132.41L141.96 133.28L134.76 118.75ZM130.36 144.4L125.4 138.71C124.84 138.07 124.48 137.39 124.33 136.69C124.18 135.99 124.23 135.3 124.48 134.64C124.73 133.97 125.18 133.36 125.81 132.81C126.45 132.25 127.12 131.89 127.82 131.73C128.52 131.57 129.2 131.61 129.87 131.86C130.54 132.11 131.16 132.55 131.72 133.19L136.68 138.88L135.78 139.67L130.78 133.93C130.37 133.46 129.92 133.14 129.43 132.96C128.93 132.78 128.44 132.75 127.94 132.86C127.44 132.97 126.97 133.22 126.52 133.61C126.07 134 125.76 134.44 125.58 134.92C125.4 135.4 125.37 135.89 125.48 136.4C125.59 136.91 125.85 137.4 126.26 137.87L131.26 143.61L130.36 144.4ZM116.04 140.29L117.24 139.65L116.68 146.63L122.42 149.91L121.21 150.56L116.34 147.74L115.94 153.39L114.77 154.02L115.24 147.38L109.19 143.98L110.4 143.33L115.62 146.29L116.06 140.3L116.04 140.29ZM94.78 148.54L97.98 147.91L100.19 159.18L96.99 159.81C95.79 160.05 94.72 160.01 93.79 159.7C92.86 159.39 92.1 158.86 91.5 158.1C90.91 157.35 90.5 156.42 90.29 155.32C90.08 154.23 90.11 153.22 90.38 152.28C90.65 151.34 91.16 150.54 91.91 149.88C92.66 149.22 93.61 148.77 94.79 148.54H94.78ZM98.82 158.4L97.01 149.17L95.02 149.56C94.06 149.75 93.28 150.1 92.7 150.62C92.12 151.14 91.72 151.78 91.52 152.55C91.32 153.32 91.31 154.17 91.49 155.1C91.67 156.03 92 156.81 92.48 157.43C92.95 158.05 93.56 158.48 94.29 158.72C95.02 158.96 95.87 158.99 96.83 158.8L98.82 158.41V158.4ZM75.44 150.95L75.47 149.91L82.36 150.09L82.06 161.57L75.28 161.4L75.31 160.36L80.89 160.5L80.99 156.5L75.89 156.37L75.92 155.33L81.02 155.46L81.13 151.09L75.44 150.94V150.95ZM60.34 150.49C60.47 149.9 60.75 149.39 61.18 148.97C61.61 148.55 62.15 148.26 62.82 148.09C63.49 147.93 64.26 147.95 65.14 148.15C66.01 148.35 66.73 148.67 67.28 149.11C67.83 149.55 68.21 150.08 68.43 150.69C68.65 151.3 68.7 151.97 68.58 152.68L67.39 152.41C67.51 151.61 67.37 150.91 66.98 150.32C66.59 149.73 65.91 149.32 64.94 149.1C64.41 148.98 63.91 148.96 63.44 149.03C62.97 149.1 62.57 149.28 62.25 149.55C61.93 149.82 61.71 150.17 61.62 150.61C61.49 151.19 61.57 151.67 61.85 152.05C62.13 152.43 62.66 152.79 63.41 153.13L64.77 153.73C65.13 153.89 65.47 154.07 65.8 154.29C66.13 154.51 66.41 154.76 66.65 155.05C66.89 155.34 67.06 155.67 67.16 156.05C67.26 156.43 67.25 156.86 67.14 157.35C67 157.95 66.72 158.46 66.29 158.86C65.86 159.27 65.33 159.54 64.69 159.7C64.05 159.85 63.36 159.84 62.61 159.67C61.87 159.5 61.24 159.21 60.73 158.78C60.21 158.36 59.83 157.84 59.59 157.24C59.34 156.64 59.29 155.97 59.42 155.25L60.62 155.52C60.53 156.02 60.56 156.5 60.72 156.94C60.88 157.38 61.13 157.76 61.48 158.06C61.83 158.37 62.28 158.59 62.82 158.71C63.39 158.84 63.9 158.84 64.33 158.72C64.77 158.6 65.12 158.4 65.4 158.13C65.68 157.85 65.86 157.52 65.94 157.14C66.04 156.7 66.01 156.33 65.84 156.02C65.67 155.71 65.43 155.44 65.1 155.22C64.77 155 64.41 154.8 64.01 154.62L62.66 154C61.76 153.59 61.1 153.11 60.68 152.56C60.26 152.01 60.15 151.32 60.34 150.47V150.49ZM54.64 145.04L55.76 145.48L51.56 156.17L50.44 155.73L54.64 145.04ZM44.36 139.58C45.06 140.01 45.63 140.54 46.07 141.16C46.51 141.78 46.82 142.46 46.99 143.19C47.16 143.92 47.18 144.67 47.05 145.45C46.92 146.23 46.62 146.98 46.17 147.72C45.72 148.45 45.19 149.04 44.57 149.51C43.95 149.98 43.28 150.31 42.56 150.51C41.84 150.71 41.1 150.75 40.35 150.64C39.6 150.53 38.87 150.26 38.16 149.82C37.31 149.3 36.65 148.68 36.2 147.96C35.75 147.25 35.48 146.49 35.38 145.69C35.28 144.89 35.35 144.1 35.57 143.33L36.73 144.04C36.56 144.61 36.52 145.2 36.59 145.79C36.66 146.38 36.87 146.95 37.22 147.49C37.57 148.03 38.08 148.51 38.74 148.91C39.49 149.37 40.25 149.59 41.05 149.59C41.84 149.59 42.59 149.37 43.3 148.94C44.01 148.51 44.62 147.88 45.12 147.06C45.61 146.26 45.89 145.44 45.95 144.6C46.01 143.76 45.86 142.98 45.49 142.25C45.12 141.52 44.55 140.92 43.77 140.44C43.06 140 42.36 139.76 41.66 139.72C40.96 139.68 40.3 139.8 39.66 140.12C39.03 140.43 38.46 140.9 37.96 141.53L41.8 143.89L41.29 144.72L36.38 141.7C36.85 140.93 37.4 140.3 38.02 139.81C38.64 139.33 39.3 138.99 40 138.8C40.7 138.61 41.42 138.58 42.15 138.7C42.88 138.82 43.61 139.11 44.34 139.56L44.36 139.58ZM28.1 126.18L25.64 137.79L32.73 131.03L33.5 131.84L25.18 139.77L24.26 138.81L26.67 127.34L19.67 134.01L18.89 133.19L27.21 125.26L28.09 126.19L28.1 126.18ZM15.47 117.6L17.68 121.16L20.98 119.11L18.52 115.14L19.51 114.53L22.7 119.68L13.54 125.36L10.47 120.41L11.46 119.79L13.79 123.56L16.69 121.77L14.48 118.21L15.46 117.6H15.47ZM7.05 113.29C6.66 112.69 6.21 111.78 5.85 110.89C5.3 109.51 5.2 108.52 5.51 107.67C5.75 106.99 6.33 106.43 7.1 106.13C8.42 105.6 9.63 106.09 10.41 107L10.45 106.98C10.41 106.1 10.94 105.36 11.89 104.7C13.16 103.82 14.03 103.19 14.33 102.83L14.86 104.17C14.64 104.45 13.87 105.01 12.73 105.79C11.47 106.64 11.16 107.38 11.58 108.57L12.07 109.79L16.41 108.06L16.93 109.35L7.05 113.29ZM11.1 110.18L10.57 108.86C10.02 107.48 8.91 106.9 7.77 107.36C6.48 107.87 6.29 109.04 6.81 110.41C7.06 111.03 7.3 111.46 7.44 111.64L11.1 110.18Z"
        fill="#525252" />
</svg>