<svg width="16" height="20" viewBox="0 0 16 20" fill="none" xmlns="http://www.w3.org/2000/svg">
    <path
        d="M9.29783 0.115607C9.00639 0.0643205 8.75 0.296863 8.75 0.592778V3.45355C8.75 3.65191 8.87095 3.82657 9.03588 3.93677C9.53908 4.27295 9.87 4.8469 9.87 5.49999V7.49999C9.87 8.52999 9.03 9.37999 8 9.37999C6.96 9.37999 6.12 8.52999 6.12 7.49999V5.49999C6.12 4.84671 6.45831 4.27261 6.96394 3.93647C7.12913 3.82665 7.25 3.65191 7.25 3.45355V0.59342C7.25 0.297274 6.99352 0.0646319 6.70187 0.116058C5.15243 0.389272 3.76579 1.13421 2.7 2.19999C1.34 3.55999 0.5 5.43999 0.5 7.49999V12.5C0.5 16.63 3.87 20 8 20C12.13 20 15.5 16.63 15.5 12.5V7.49999C15.5 3.8095 12.813 0.73421 9.29783 0.115607Z"
        fill="#292D32" />
</svg>