<svg width="19" height="26" viewBox="0 0 19 26" fill="none" xmlns="http://www.w3.org/2000/svg">
    <g style="mix-blend-mode:difference">
        <path
            d="M10.9997 0.0735778C10.7072 0.0254241 10.45 0.257877 10.45 0.554356V4.549C10.45 4.74547 10.5678 4.91978 10.734 5.02454C11.415 5.45378 11.8687 6.22723 11.8687 7.11223V9.71744C11.8687 11.0591 10.8047 12.1663 9.5 12.1663C8.18267 12.1663 7.11867 11.0591 7.11867 9.71744V7.11223C7.11867 6.22707 7.58232 5.45351 8.26585 5.02431C8.43225 4.91984 8.55 4.74547 8.55 4.549V0.555016C8.55 0.258301 8.29269 0.0257547 7.99994 0.0740984C5.97915 0.407803 4.16965 1.3914 2.78667 2.81363C1.064 4.58517 0 7.03407 0 9.71744V16.2305C0 21.6102 4.26867 26 9.5 26C14.7313 26 19 21.6102 19 16.2305V9.71744C19 4.85841 15.5228 0.818101 10.9997 0.0735778Z"
            fill="white" />
    </g>
</svg>